<?xml version="1.0" encoding="utf-8"?>
<svg version="1.1" id="Ebene_1" xmlns="http://www.w3.org/2000/svg" xmlns:xlink="http://www.w3.org/1999/xlink" x="0px" y="0px"
	 viewBox="0 0 210 297" style="enable-background:new 0 0 210 297;" xml:space="preserve">
<style type="text/css">
	.st0{opacity:0.25;fill:#FFFFFF;stroke:#000000;stroke-width:3;stroke-miterlimit:10;}
	.st1{fill:#F6F6F6;stroke:#009FE3;stroke-width:0.75;stroke-miterlimit:10;}
	.st2{fill:#F6F6F6;stroke:#000000;stroke-width:0.75;stroke-miterlimit:10;}
	.st3{fill:#009FE3;stroke:#000000;stroke-width:0.75;stroke-miterlimit:10;}
	.st4{stroke:#000000;stroke-width:0.75;stroke-miterlimit:10;}
	.st5{fill:#FFFFFF;stroke:#009FE3;stroke-width:0.75;stroke-miterlimit:10;}
	.st6{fill:#2D2E83;stroke:#000000;stroke-width:0.75;stroke-miterlimit:10;}
</style>
<path class="st0" d="M132.58,196.79c-6.84-6.83-16.2-11.14-26.57-11.41c-0.29-0.01-0.57-0.01-0.86-0.01c-0.34,0-0.67,0-1.01,0.01
	c-10.43,0.22-19.85,4.55-26.72,11.41c-5.31,5.31-9.1,12.14-10.65,19.79c10.04,10.98,24.36,17.99,40.33,18.37
	c0.46,0.01,0.92,0.02,1.39,0.02h0.15c0.27,0,0.53,0,0.79-0.01c12.88-0.32,24.7-4.91,34.08-12.41c0.15-0.12,0.3-0.24,0.44-0.36
	C143.4,212.28,139.16,203.37,132.58,196.79z M105.52,220.34c-9.89,0-17.89-3.94-17.89-8.8c0-4.85,8-8.79,17.89-8.79
	c9.88,0,17.88,3.94,17.88,8.79C123.4,216.4,115.4,220.34,105.52,220.34z"/>
<path class="st1" d="M59.29,131.09v45.27c17.45,0,31.59-14.14,31.59-31.59v-13.68H59.29z M76.05,153.26
	c-3.79,1.42-8.02-0.49-9.45-4.28c-0.32-0.85-0.47-1.73-0.47-2.59c0-2.96,1.81-5.75,4.75-6.86c0.85-0.32,1.72-0.47,2.58-0.47
	c2.97,0,5.76,1.81,6.86,4.75c0.32,0.85,0.47,1.73,0.47,2.59C80.79,149.36,78.99,152.15,76.05,153.26z"/>
<path class="st2" d="M80.79,146.4c0,2.96-1.8,5.75-4.74,6.86c-3.79,1.42-8.02-0.49-9.45-4.28c-0.32-0.85-0.47-1.73-0.47-2.59
	c0-2.96,1.81-5.75,4.75-6.86c0.85-0.32,1.72-0.47,2.58-0.47c2.97,0,5.76,1.81,6.86,4.75C80.64,144.66,80.79,145.54,80.79,146.4z"/>
<path class="st3" d="M72.86,149.57L72.86,149.57c-1.75,0-3.18-1.42-3.18-3.18v0c0-1.75,1.42-3.18,3.18-3.18h0
	c1.75,0,3.18,1.42,3.18,3.18v0C76.03,148.15,74.61,149.57,72.86,149.57z"/>
<path class="st4" d="M136.55,107.27H80.13c-23.63,0-40.95,22.22-35.18,45.14l5.6,22.25c0.58,2.3,0.91,4.65,1.04,7.02
	c0.76,13.42,6.2,25.59,14.72,34.9c10.33,11.3,25.2,18.39,41.72,18.39h0.46c-16.52,0-31.39-7.09-41.72-18.39
	c1.55-7.65,5.34-14.48,10.65-19.79c7.06-7.05,16.81-11.42,27.58-11.42s20.52,4.37,27.58,11.42c6.58,6.58,10.82,15.49,11.37,25.4
	c11.94-9.74,19.83-24.22,20.83-40.56c0.16-2.54,0.52-5.06,1.17-7.51l5.66-21.23C177.75,129.86,160.39,107.27,136.55,107.27z
	 M90.88,144.77c0,17.45-14.14,31.59-31.59,31.59v-45.27h31.59V144.77z M140.84,160.83c-2.31,2.31-5.5,3.74-9.02,3.74
	c-7.05,0-12.76-5.71-12.76-12.76c0-0.72,0.06-1.42,0.18-2.1h-0.18c-4.7,0-8.5-3.8-8.5-8.5c0-2.35,0.95-4.47,2.49-6.01
	c1.53-1.54,3.66-2.49,6.01-2.49s4.48,0.95,6.02,2.49c1.23,1.23,2.09,2.84,2.38,4.63c1.36-0.5,2.83-0.77,4.36-0.77
	c3.52,0,6.71,1.43,9.02,3.74c2.3,2.3,3.73,5.49,3.73,9.01C144.57,155.34,143.14,158.52,140.84,160.83z"/>
<path class="st5" d="M127.57,141.21c0,2.35-0.95,4.47-2.49,6.01c-1.5,1.5-3.56,2.44-5.84,2.49c0.44-2.68,1.72-5.08,3.56-6.91
	c1.3-1.31,2.89-2.33,4.66-2.97C127.53,140.28,127.57,140.74,127.57,141.21z"/>
<path class="st5" d="M127.46,139.83c-1.77,0.64-3.36,1.66-4.66,2.97c-1.84,1.83-3.12,4.23-3.56,6.91h-0.18c-4.7,0-8.5-3.8-8.5-8.5
	c0-2.35,0.95-4.47,2.49-6.01c1.53-1.54,3.66-2.49,6.01-2.49s4.48,0.95,6.02,2.49C126.31,136.43,127.17,138.04,127.46,139.83z"/>
<path class="st5" d="M144.57,151.81c0,3.53-1.43,6.71-3.73,9.02c-2.31,2.31-5.5,3.74-9.02,3.74c-7.05,0-12.76-5.71-12.76-12.76
	c0-0.72,0.06-1.42,0.18-2.1c2.28-0.05,4.34-0.99,5.84-2.49c1.54-1.54,2.49-3.66,2.49-6.01c0-0.47-0.04-0.93-0.11-1.38
	c1.36-0.5,2.83-0.77,4.36-0.77c3.52,0,6.71,1.43,9.02,3.74C143.14,145.1,144.57,148.29,144.57,151.81z"/>
<path class="st6" d="M144.1,222.19c0-0.04,0-0.08-0.01-0.12c-0.57-9.86-4.81-18.73-11.36-25.28c-6.87-6.86-16.29-11.19-26.72-11.41
	c-0.29-0.01-0.57-0.01-0.86-0.01c-0.34,0-0.67,0-1.01,0.01c-10.37,0.27-19.73,4.58-26.57,11.41c-5.31,5.31-9.1,12.14-10.65,19.79
	c10.01,10.95,24.28,17.94,40.18,18.37c0.46,0.01,0.92,0.02,1.39,0.02h0.15c0.27,0,0.53,0,0.79-0.01
	c13.12-0.17,25.16-4.79,34.69-12.41C144.11,222.43,144.11,222.31,144.1,222.19z M105.52,220.34c-9.89,0-17.89-3.94-17.89-8.8
	c0-4.85,8-8.79,17.89-8.79c9.88,0,17.88,3.94,17.88,8.79C123.4,216.4,115.4,220.34,105.52,220.34z"/>
</svg>
